<?xml version="1.0" encoding="utf-8"?>
<!-- Uploaded to: SVG Repo, www.svgrepo.com, Generator: SVG Repo Mixer Tools -->
<!DOCTYPE svg PUBLIC "-//W3C//DTD SVG 1.1//EN" "http://www.w3.org/Graphics/SVG/1.1/DTD/svg11.dtd">
<svg fill="#000000" width="800px" height="800px" viewBox="0 0 1000 1000" version="1.1" xmlns="http://www.w3.org/2000/svg" xmlns:xlink="http://www.w3.org/1999/xlink"  enable-background="new 0 0 1000 1000" xml:space="preserve">
<metadata> Svg Vector Icons : http://www.onlinewebfonts.com/icon </metadata>
<g>
<g transform="translate(0.000000,511.000000) scale(0.100000,-0.100000)">
<path d="M4673.2,5008.1C2645.1,4851.6,939.8,3514.7,325.8,1599.5C165.4,1102.4,100,670.6,100,108.1c0-451.6,25.7-683.3,116.9-1089.3C626.8-2805.3,2086.5-4265,3910.7-4675c388.2-87.2,655.6-116.9,1089.3-116.9s701.1,29.7,1089.3,116.9c1824.1,410,3283.8,1869.7,3693.8,3693.8C9870.3-593,9900-325.7,9900,108.1c0,554.6-67.3,1000.2-225.8,1491.4c-584.3,1822.1-2176.7,3141.2-4080,3380.9C5411.9,5002.1,4833.6,5020,4673.2,5008.1z M5742.7,4645.6c962.6-164.4,1816.2-604.1,2503.5-1291.4C8943.4,2657.1,9387,1783.7,9549.4,791.4c49.5-307,49.5-1039.8,0-1352.7C9391-1559.6,8951.3-2431,8246.2-3138.1C7549-3837.2,6665.7-4284.9,5669.4-4441.3c-312.9-49.5-1024-49.5-1342.8,0C2530.2-4162.1,1046.7-2854.9,571.4-1123.8C444.6-662.4,416.9-438.6,416.9,108.1c0,542.7,27.7,766.5,156.5,1239.8c491.2,1788.5,2065.8,3121.4,3941.4,3335.3C4780.1,4713,5471.4,4691.2,5742.7,4645.6z"/>
<path d="M4849.5,4200c-196.1-87.1-211.9-340.7-29.7-461.5c219.9-146.6,497.1,118.8,358.5,344.6C5106.9,4202,4966.3,4253.5,4849.5,4200z M4996,3964.3c7.9-39.6-49.5-67.3-79.2-37.6s-2,87.2,37.6,79.2C4974.2,4001.9,4992.1,3984.1,4996,3964.3z"/>
<path d="M4691,3098.8c-487.2-51.5-982.4-235.7-1398.3-518.9c-239.6-162.4-602.1-524.9-764.5-764.5C2132.1,1235.1,1943.9,528,2007.3-135.5c39.6-423.8,110.9-689.3,289.2-1057.6c152.5-318.9,320.9-554.6,584.3-818c435.7-437.7,954.7-713,1570.6-835.8c312.9-61.4,784.3-61.4,1097.3,0c962.6,190.1,1744.9,790.3,2154.9,1655.8c215.9,451.6,295.1,800.2,295.1,1299.3c0,257.5-9.9,374.3-43.6,548.6c-83.2,413.9-239.6,792.2-481.3,1154.7c-160.5,241.6-518.9,602.1-766.5,768.5C6109.1,2987.9,5390.2,3172.1,4691,3098.8z M5406,2772c279.3-43.6,513-118.8,772.4-245.6c796.2-388.2,1342.8-1130.9,1485.4-2012.3c27.7-166.4,41.6-663.5,19.8-663.5c-6,0-81.2,53.5-168.4,116.8c-461.5,342.7-972.5,497.1-1469.6,441.7c-501.1-55.5-1045.7-309-1447.8-677.4L4469.2-387l-126.8,31.7c-198.1,47.5-643.7,59.4-857.6,19.8c-328.8-61.4-647.7-188.2-899.2-356.5c-57.4-39.6-112.9-71.3-120.8-71.3c-17.8,0-67.3,152.5-112.9,356.5c-15.8,71.3-33.7,263.4-39.6,425.8c-15.8,475.3,61.4,841.7,269.4,1267.6c384.2,786.3,1123,1336.9,1992.5,1483.5C4788.1,2807.7,5188.2,2807.7,5406,2772z M6742.9,30.9c237.7-81.2,398.1-168.4,623.9-338.7c267.4-202,259.4-192.1,217.9-340.7c-17.8-69.3-69.3-204-110.9-301.1c-604.1-1402.3-2250-2030.1-3616.6-1378.5c-511,241.6-936.8,641.7-1212.1,1132.9l-63.4,112.9l124.8,93.1c271.3,198.1,675.4,346.6,1027.9,374.3c493.2,39.6,1039.8-150.5,1515.2-526.8c87.1-69.3,140.6-97,184.2-97c83.2,0,140.6,61.4,140.6,150.5c0,57.4-13.9,85.2-73.3,140.6c-110.9,101-392.1,287.2-558.5,372.4L4794-501.9l69.3,57.4c112.9,97.1,376.3,267.4,522.9,340.7c334.7,166.4,544.7,213.9,901.2,204C6527,94.2,6574.6,88.3,6742.9,30.9z"/>
<path d="M3801.7,1748c-101-53.5-118.8-166.4-39.6-243.6l47.5-49.5h790.3c879.4,0,861.5-2,887.3,132.7c9.9,53.5,2,73.3-47.5,124.8l-59.4,59.4h-770.4C4092.9,1769.8,3827.5,1763.9,3801.7,1748z"/>
<path d="M3682.9-1226.8c-231.7-67.3-312.9-126.7-312.9-233.7c0-43.6,15.8-75.3,53.5-108.9c67.3-57.5,87.1-57.5,215.9,0c85.2,35.6,138.6,43.6,311,43.6c188.2,0,217.9-5.9,316.9-55.4c61.4-31.7,162.4-99,225.8-154.5c124.8-105,194.1-122.8,267.4-61.4c21.8,17.8,47.5,61.4,53.5,95.1c9.9,53.5,0,75.3-63.4,146.6c-103,112.9-277.3,229.7-439.7,291.2C4146.4-1201.1,3839.4-1183.2,3682.9-1226.8z"/>
<path d="M7671.8,3059.2c-134.7-39.6-202-126.8-200.1-263.4c2-91.1,43.6-160.4,128.7-211.9c178.3-110.9,406,39.6,384.2,253.5C7968.9,2991.8,7814.4,3100.8,7671.8,3059.2z M7768.8,2805.7c6-31.7-3.9-43.6-33.7-43.6c-47.5,0-69.3,29.7-53.5,71.3C7699.5,2878.9,7761,2859.1,7768.8,2805.7z"/>
<path d="M1999.4,2993.8c-116.9-116.9-112.9-263.4,11.9-382.3c51.5-49.5,77.2-57.4,166.4-57.4c91.1,0,114.9,7.9,168.3,59.4c122.8,116.8,122.8,291.2-2,396.1c-49.5,39.6-81.2,49.5-170.3,49.5C2076.6,3059.2,2056.8,3051.3,1999.4,2993.8z M2223.2,2815.6c7.9-39.6-49.5-67.3-79.2-37.6c-29.7,29.7-2,87.2,37.6,79.2C2201.4,2853.2,2219.2,2835.4,2223.2,2815.6z"/>
<path d="M963.5,284.4c-245.6-51.5-263.4-423.8-23.8-495.1c152.5-45.5,293.1,27.7,338.7,178.3C1331.9,151.7,1157.6,327.9,963.5,284.4z M1068.5,38.8c0-25.7-15.8-41.6-43.6-45.6c-33.7-6-45.5,3.9-45.5,31.7c0,19.8,5.9,43.6,13.9,51.5C1019,102.2,1068.5,78.4,1068.5,38.8z"/>
<path d="M8820.6,286.4c-132.7-37.6-202-124.8-200.1-263.4c4-194.1,225.8-314.9,394.1-211.9c140.6,85.2,164.4,285.2,51.5,400.1C9000.8,276.5,8899.8,306.2,8820.6,286.4z M8917.6,32.9c6-31.7-3.9-43.6-33.7-43.6c-47.5,0-69.3,29.7-53.5,71.3C8848.3,106.1,8909.7,86.3,8917.6,32.9z"/>
<path d="M2033.1-2526.1c-67.3-41.6-122.8-140.6-122.8-219.8c0-21.8,15.8-73.3,33.7-110.9c91.1-192.1,376.3-192.1,467.4,0c41.6,85.2,41.6,132.7,5.9,221.8C2359.9-2498.4,2167.7-2444.9,2033.1-2526.1z M2223.2-2732.1c7.9-41.6-27.7-73.3-69.3-57.4c-27.7,9.9-35.6,69.3-11.9,93.1C2165.8-2672.7,2217.3-2694.4,2223.2-2732.1z"/>
<path d="M7582.7-2526.1c-110.9-71.3-146.6-235.7-77.3-352.5c130.7-219.9,485.3-120.8,485.3,134.7C7990.7-2543.9,7753-2417.1,7582.7-2526.1z M7768.8-2734.1c9.9-43.6-35.6-73.3-69.3-45.5c-33.7,25.7-33.7,69.3,0,81.2C7737.2-2682.6,7762.9-2694.4,7768.8-2734.1z"/>
<path d="M4819.8-3664.9c-168.3-91.1-166.4-368.4,4-457.5c142.6-73.3,320.8-4,374.3,146.6c25.7,73.3,25.7,93.1,0,166.4C5144.6-3659,4960.4-3587.7,4819.8-3664.9z M4996-3880.8c9.9-47.5-19.8-75.3-61.4-59.4c-39.6,13.9-45.6,79.2-7.9,93.1C4964.3-3831.3,4990.1-3843.2,4996-3880.8z"/>
</g>
</g>
</svg>